<mxfile host="app.diagrams.net" agent="Mozilla/5.0 (X11; Linux x86_64) AppleWebKit/537.36 (KHTML, like Gecko) Chrome/133.0.0.0 Safari/537.36" version="26.0.15" pages="2">
  <diagram id="jrXY4hO8n29qiqvIHeQG" name="Conceptual">
    <mxGraphModel dx="2212" dy="1376" grid="0" gridSize="10" guides="1" tooltips="1" connect="1" arrows="1" fold="1" page="0" pageScale="1" pageWidth="827" pageHeight="1169" math="0" shadow="0">
      <root>
        <mxCell id="0" />
        <mxCell id="1" parent="0" />
        <mxCell id="FbiYdP1pLjlpcdiMdaUz-19" style="edgeStyle=none;rounded=0;orthogonalLoop=1;jettySize=auto;html=1;startArrow=classic;startFill=1;fillColor=#d80073;strokeColor=#A50040;fontSize=14;" parent="1" source="FbiYdP1pLjlpcdiMdaUz-5" target="FbiYdP1pLjlpcdiMdaUz-7" edge="1">
          <mxGeometry relative="1" as="geometry" />
        </mxCell>
        <mxCell id="FbiYdP1pLjlpcdiMdaUz-35" style="edgeStyle=none;rounded=0;orthogonalLoop=1;jettySize=auto;html=1;fillColor=#76608a;strokeColor=#432D57;fontSize=14;" parent="1" source="FbiYdP1pLjlpcdiMdaUz-5" target="FbiYdP1pLjlpcdiMdaUz-29" edge="1">
          <mxGeometry relative="1" as="geometry" />
        </mxCell>
        <mxCell id="FbiYdP1pLjlpcdiMdaUz-5" value="Users" style="sketch=0;outlineConnect=0;gradientColor=none;fillColor=#232F3D;strokeColor=none;dashed=0;verticalLabelPosition=bottom;verticalAlign=top;align=center;html=1;aspect=fixed;pointerEvents=1;shape=mxgraph.aws4.users;fontSize=14;" parent="1" vertex="1">
          <mxGeometry x="-370" y="125.5" width="78" height="78" as="geometry" />
        </mxCell>
        <mxCell id="FbiYdP1pLjlpcdiMdaUz-12" value="" style="edgeStyle=none;rounded=0;orthogonalLoop=1;jettySize=auto;html=1;startArrow=classic;startFill=1;fillColor=#60a917;strokeColor=#2D7600;fontSize=14;" parent="1" source="FbiYdP1pLjlpcdiMdaUz-16" target="FbiYdP1pLjlpcdiMdaUz-8" edge="1">
          <mxGeometry relative="1" as="geometry" />
        </mxCell>
        <mxCell id="FbiYdP1pLjlpcdiMdaUz-13" value="" style="edgeStyle=none;rounded=0;orthogonalLoop=1;jettySize=auto;html=1;startArrow=classic;startFill=1;fillColor=#60a917;strokeColor=#2D7600;fontSize=14;" parent="1" source="FbiYdP1pLjlpcdiMdaUz-16" target="FbiYdP1pLjlpcdiMdaUz-9" edge="1">
          <mxGeometry relative="1" as="geometry" />
        </mxCell>
        <mxCell id="FbiYdP1pLjlpcdiMdaUz-14" value="" style="edgeStyle=none;rounded=0;orthogonalLoop=1;jettySize=auto;html=1;startArrow=classic;startFill=1;fillColor=#60a917;strokeColor=#2D7600;fontSize=14;" parent="1" source="FbiYdP1pLjlpcdiMdaUz-16" target="FbiYdP1pLjlpcdiMdaUz-10" edge="1">
          <mxGeometry relative="1" as="geometry" />
        </mxCell>
        <mxCell id="FbiYdP1pLjlpcdiMdaUz-17" value="" style="edgeStyle=none;rounded=0;orthogonalLoop=1;jettySize=auto;html=1;startArrow=classic;startFill=1;fillColor=#1ba1e2;strokeColor=#006EAF;fontSize=14;" parent="1" source="FbiYdP1pLjlpcdiMdaUz-6" target="FbiYdP1pLjlpcdiMdaUz-16" edge="1">
          <mxGeometry relative="1" as="geometry" />
        </mxCell>
        <mxCell id="FbiYdP1pLjlpcdiMdaUz-34" style="edgeStyle=none;rounded=0;orthogonalLoop=1;jettySize=auto;html=1;fillColor=#f0a30a;strokeColor=#BD7000;fontSize=14;" parent="1" source="FbiYdP1pLjlpcdiMdaUz-6" target="FbiYdP1pLjlpcdiMdaUz-29" edge="1">
          <mxGeometry relative="1" as="geometry" />
        </mxCell>
        <mxCell id="FbiYdP1pLjlpcdiMdaUz-6" value="AI model" style="sketch=0;outlineConnect=0;gradientColor=none;fillColor=#232F3D;strokeColor=none;dashed=0;verticalLabelPosition=bottom;verticalAlign=top;align=center;html=1;aspect=fixed;pointerEvents=1;shape=mxgraph.aws4.magnifying_glass_2;fontSize=14;" parent="1" vertex="1">
          <mxGeometry x="120" y="124.5" width="78" height="78" as="geometry" />
        </mxCell>
        <mxCell id="FbiYdP1pLjlpcdiMdaUz-18" value="" style="edgeStyle=none;rounded=0;orthogonalLoop=1;jettySize=auto;html=1;startArrow=classic;startFill=1;fillColor=#e51400;strokeColor=#B20000;fontSize=14;" parent="1" source="FbiYdP1pLjlpcdiMdaUz-7" target="FbiYdP1pLjlpcdiMdaUz-6" edge="1">
          <mxGeometry relative="1" as="geometry" />
        </mxCell>
        <mxCell id="FbiYdP1pLjlpcdiMdaUz-7" value="Search bar&#xa;Corporate website" style="sketch=0;outlineConnect=0;gradientColor=none;fillColor=#232F3D;strokeColor=none;dashed=0;verticalLabelPosition=bottom;verticalAlign=top;align=center;html=1;aspect=fixed;pointerEvents=1;shape=mxgraph.aws4.management_console2;fontSize=14;" parent="1" vertex="1">
          <mxGeometry x="-100" y="130" width="78" height="69" as="geometry" />
        </mxCell>
        <mxCell id="FbiYdP1pLjlpcdiMdaUz-8" value="File storage&#xa;(Sharepoint, Google Drive,&#xa;File server...)" style="sketch=0;outlineConnect=0;gradientColor=none;fillColor=#232F3D;strokeColor=none;dashed=0;verticalLabelPosition=bottom;verticalAlign=top;align=center;html=1;aspect=fixed;pointerEvents=1;shape=mxgraph.aws4.documents;fontSize=14;" parent="1" vertex="1">
          <mxGeometry x="654" y="-30" width="64" height="78" as="geometry" />
        </mxCell>
        <mxCell id="FbiYdP1pLjlpcdiMdaUz-9" value="Database" style="sketch=0;outlineConnect=0;gradientColor=none;fillColor=#232F3D;strokeColor=none;dashed=0;verticalLabelPosition=bottom;verticalAlign=top;align=center;html=1;aspect=fixed;pointerEvents=1;shape=mxgraph.aws4.generic_database;fontSize=14;" parent="1" vertex="1">
          <mxGeometry x="659" y="125.5" width="59" height="78" as="geometry" />
        </mxCell>
        <mxCell id="FbiYdP1pLjlpcdiMdaUz-10" value="Photos, videos" style="sketch=0;outlineConnect=0;gradientColor=none;fillColor=#232F3D;strokeColor=none;dashed=0;verticalLabelPosition=bottom;verticalAlign=top;align=center;html=1;aspect=fixed;pointerEvents=1;shape=mxgraph.aws4.multimedia;fontSize=14;" parent="1" vertex="1">
          <mxGeometry x="649.5" y="260" width="78" height="73" as="geometry" />
        </mxCell>
        <mxCell id="FbiYdP1pLjlpcdiMdaUz-16" value="AI&#xa;knowledge base" style="sketch=0;html=1;verticalAlign=top;labelPosition=center;verticalLabelPosition=bottom;align=center;spacingTop=-6;shape=mxgraph.aws4.data_table;aspect=fixed;imageAspect=0;image=data:image/svg+xml,PHN2ZyB4bWxucz0iaHR0cDovL3d3dy53My5vcmcvMjAwMC9zdmciIGlkPSJzdmcyNDYzMyIgdmVyc2lvbj0iMS4xIiB2aWV3Qm94PSIwIDAgMjA4LjcxMzM2IDI1OC45NjYwOSIgaGVpZ2h0PSIyNTguOTY2MDltbSIgd2lkdGg9IjIwOC43MTMzNm1tIj4mI3hhOyAgJiN4YTsgIDxkZWZzIGlkPSJkZWZzMjQ2MzAiLz4mI3hhOyAgPGcgdHJhbnNmb3JtPSJ0cmFuc2xhdGUoLTMuMzk0NjI0OCwtMTcuODEwMjgyKSIgaWQ9ImxheWVyMSI+JiN4YTsgICAgPHBhdGggdHJhbnNmb3JtPSJzY2FsZSgwLjI2NDU4MzMzKSIgZD0ibSAxMTIuNDcwNyw2Ny4zMTQ0NTMgYyAtNTguMzI5NTUyLDAgLTk5LjY0MDYyMiw0MS4wMzc2NDcgLTk5LjY0MDYyMiwxMDYuODUxNTY3IHYgNzc0LjE4NzUgYyAwLDU2LjMxMzc4IDQzLjI2NjU5Niw5Ny43MzA0OCAxMDEuMjc3MzQyLDk3LjczMDQ4IEggNDEwLjA5OTYxIFYgOTQ3LjUwNTg2IEggMTA5LjM4MjgxIFYgMTYzLjIxODc1IGggMzAwLjcxNjggViA2Ny4zMTQ0NTMgWiBtIDQ3MS43MjA3MSwyOC43NzczNDQgYSA2OS44ODQ0ODksNjkuODg0NDg5IDAgMCAwIC02OS44ODQ3Nyw2OS44ODQ3NjMgNjkuODg0NDg5LDY5Ljg4NDQ4OSAwIDAgMCA0OS4wNjQ0NSw2Ni43MDExNyB2IDc2Ljg4ODY4IGMgMCwzMi4xNzM1NCAtMy4wMDI0OSw1NC4yMDgzNiAtOS4wMDU4Niw2NC4zNDc2NSAtNi4wMDMzNiwxMC4xMzkzIC0xNC4wMTI0MiwxNS4yOTY4OCAtNDIuMjM4MjgsMTUuMjk2ODggaCAtNDkuMTQyNTcgdiAzOS45OTQxNCBoIDQ5LjE0MjU3IGMgMzUuMzA1MSwwIDYyLjkxMzc2LC0xMS43MTI1MiA3Ni42NTIzNSwtMzQuOTE2MDIgMTMuNzM4NTgsLTIzLjIwMzU1IDE0LjU5Mzc1LC01MC45ODc2OCAxNC41OTM3NSwtODQuNzIyNjUgViAyMzMuMTM0NzcgQSA2OS44ODQ0ODksNjkuODg0NDg5IDAgMCAwIDY1NC4wNzQyMiwxNjUuOTc2NTYgNjkuODg0NDg5LDY5Ljg4NDQ4OSAwIDAgMCA1ODQuMTkxNDEsOTYuMDkxNzk3IFogTSAyMDkuMTA3NDIsMzU5Ljc5Njg4IHYgOTYuNjM2NzEgaCAyMDAuOTE3OTcgdiAtOTYuNjM2NzEgeiBtIDUyMi42Nzc3NCwyOC42OTMzNSBhIDY5Ljg4NDQ4OSw2OS44ODQ0ODkgMCAwIDAgLTY5Ljg4NDc3LDY5Ljg4NDc3IDY5Ljg4NDQ4OSw2OS44ODQ0ODkgMCAwIDAgNDQuNTMzMiw2NS4xMTkxNCBjIC0wLjgyMjcyLDI4LjAzMTA0IC04LjIxNjMsNDAuMDcxOTggLTIwLjgxODM2LDQ4LjQ3NjU2IC0xMy4zODU1Myw4LjkyNzE3IC0zNy43MTQ3NCwxMy4zOTg0NCAtNzEuMjc5MjksMTMuMzk4NDQgSCA0NjMuNjY0MDYgdiAzOS45OTQxNCBoIDE1MC42NzE4OCBjIDM2LjUyOTQzLDAgNjguMjkxOTIsLTMuMzI0MjMgOTMuNDY4NzUsLTIwLjExNTIzIDIzLjMyMzQ4LC0xNS41NTQ5NiAzNi42MzkxNywtNDIuOTc3MzEgMzguNDc0NjEsLTc4LjU0MTAyIEEgNjkuODg0NDg5LDY5Ljg4NDQ4OSAwIDAgMCA4MDEuNjY3OTcsNDU4LjM3NSA2OS44ODQ0ODksNjkuODg0NDg5IDAgMCAwIDczMS43ODUxNiwzODguNDkwMjMgWiBNIDIwOS4xMDc0Miw1NTYuNDgyNDIgdiA5Ni42MzY3MiBoIDIwMC45MTc5NyB2IC05Ni42MzY3MiB6IG0gMCwxOTYuNjg3NSB2IDk2LjYzNjcyIGggMjAwLjkxNzk3IHYgLTk2LjYzNjcyIHogbSAyNTQuOTc2NTYsMjcuNTQ2ODggdiAzOS45OTQxNCBoIDk4LjU5OTYxIGMgMzIuMzE0MjUsMCA1NS40NDQxMiwyLjUyNzk1IDY2LjIzMDQ3LDguMDAxOTUgNS4zOTMxNiwyLjczNzAyIDguMDg0ODgsNS4zNTUzMiAxMC41NDI5NywxMC4yMzI0MiAyLjQ1ODA5LDQuODc3MTQgNC40MDYyNSwxMi43Nzc2OCA0LjQwNjI1LDI1LjAzMTI1IHYgMTkuODE4MzYgYSA2OS44ODQ0ODksNjkuODg0NDg5IDAgMCAwIC00OS43MjI2Niw2Ni44OTY0OSA2OS44ODQ0ODksNjkuODg0NDg5IDAgMCAwIDY5Ljg4NDc3LDY5Ljg4NDc5IDY5Ljg4NDQ4OSw2OS44ODQ0ODkgMCAwIDAgNjkuODg0NzcsLTY5Ljg4NDc5IDY5Ljg4NDQ4OSw2OS44ODQ0ODkgMCAwIDAgLTUwLjA0NDkzLC02Ni45ODI0MyB2IC0xOS43MzI0MiBjIDAsLTE2LjM2ODgzIC0yLjQ2MjIsLTMwLjY4NTUgLTguNjg3NSwtNDMuMDM3MTEgLTYuMjI1MjYsLTEyLjM1MTYxIC0xNi40OTAxNywtMjEuOTczMDIgLTI4LjE2MjExLC0yNy44OTY0OCBDIDYyMy42NzE3NSw3ODEuMTk2MDggNTk2LjIxNjcsNzgwLjcxNjggNTYyLjY4MzU5LDc4MC43MTY4IFoiIHN0eWxlPSJjb2xvcjojMDAwMDAwO29wYWNpdHk6MTtmaWxsOiM1OTg2ZjI7ZmlsbC1vcGFjaXR5OjE7c3Ryb2tlLXdpZHRoOjM5Ljk5OTk7LWlua3NjYXBlLXN0cm9rZTpub25lIiBpZD0icGF0aDI0NzYyIi8+JiN4YTsgIDwvZz4mI3hhOzwvc3ZnPg==;imageBackground=none;outlineConnect=0;fontColor=#232F3E;gradientColor=none;fillColor=#232F3D;strokeColor=none;dashed=0;fontStyle=0;pointerEvents=1;fontSize=14;" parent="1" vertex="1">
          <mxGeometry x="400" y="123.5" width="64.76" height="80" as="geometry" />
        </mxCell>
        <mxCell id="FbiYdP1pLjlpcdiMdaUz-23" value="Knowledge is created from&amp;nbsp;&lt;br&gt;different sources" style="text;html=1;align=center;verticalAlign=middle;resizable=0;points=[];autosize=1;strokeColor=#2D7600;fillColor=#60a917;fontColor=#ffffff;fontSize=14;" parent="1" vertex="1">
          <mxGeometry x="390" y="-25" width="190" height="50" as="geometry" />
        </mxCell>
        <mxCell id="FbiYdP1pLjlpcdiMdaUz-24" value="AI Model process users questions&amp;nbsp;&lt;div&gt;and retrieves relevant data from knowledge&lt;/div&gt;" style="text;html=1;align=center;verticalAlign=middle;resizable=0;points=[];autosize=1;strokeColor=#006EAF;fillColor=#1ba1e2;fontColor=#ffffff;fontSize=14;" parent="1" vertex="1">
          <mxGeometry x="148" y="40" width="290" height="50" as="geometry" />
        </mxCell>
        <mxCell id="FbiYdP1pLjlpcdiMdaUz-25" value="Website requires authentication to&lt;div&gt;access AI search&lt;/div&gt;&lt;div&gt;AI search display results with the source&lt;/div&gt;" style="text;html=1;align=center;verticalAlign=middle;resizable=0;points=[];autosize=1;strokeColor=#A50040;fillColor=#d80073;fontColor=#ffffff;fontSize=14;" parent="1" vertex="1">
          <mxGeometry x="-310" y="35" width="270" height="60" as="geometry" />
        </mxCell>
        <mxCell id="FbiYdP1pLjlpcdiMdaUz-26" value="Website sends requests to AI Model" style="text;html=1;align=center;verticalAlign=middle;resizable=0;points=[];autosize=1;strokeColor=#B20000;fillColor=#e51400;fontColor=#ffffff;fontSize=14;" parent="1" vertex="1">
          <mxGeometry x="-60" y="-10" width="250" height="30" as="geometry" />
        </mxCell>
        <mxCell id="FbiYdP1pLjlpcdiMdaUz-30" style="edgeStyle=none;rounded=0;orthogonalLoop=1;jettySize=auto;html=1;startArrow=classic;startFill=1;fillColor=#f0a30a;strokeColor=#BD7000;fontSize=14;" parent="1" source="FbiYdP1pLjlpcdiMdaUz-28" target="FbiYdP1pLjlpcdiMdaUz-29" edge="1">
          <mxGeometry relative="1" as="geometry" />
        </mxCell>
        <mxCell id="FbiYdP1pLjlpcdiMdaUz-28" value="Admins" style="sketch=0;outlineConnect=0;fontColor=#232F3E;gradientColor=none;fillColor=#232F3D;strokeColor=none;dashed=0;verticalLabelPosition=bottom;verticalAlign=top;align=center;html=1;fontSize=14;fontStyle=0;aspect=fixed;pointerEvents=1;shape=mxgraph.aws4.authenticated_user;" parent="1" vertex="1">
          <mxGeometry x="380" y="490" width="58" height="58" as="geometry" />
        </mxCell>
        <mxCell id="FbiYdP1pLjlpcdiMdaUz-29" value="" style="sketch=0;outlineConnect=0;fontColor=#232F3E;gradientColor=none;fillColor=#232F3D;strokeColor=none;dashed=0;verticalLabelPosition=bottom;verticalAlign=top;align=center;html=1;fontSize=14;fontStyle=0;aspect=fixed;pointerEvents=1;shape=mxgraph.aws4.metrics;" parent="1" vertex="1">
          <mxGeometry x="120" y="310" width="78" height="71" as="geometry" />
        </mxCell>
        <mxCell id="FbiYdP1pLjlpcdiMdaUz-36" value="Collect and analyze logs/metrics&lt;br&gt;Action as necessary" style="text;html=1;align=center;verticalAlign=middle;resizable=0;points=[];autosize=1;strokeColor=#BD7000;fillColor=#f0a30a;fontColor=#000000;fontSize=14;" parent="1" vertex="1">
          <mxGeometry x="49" y="460" width="220" height="50" as="geometry" />
        </mxCell>
        <mxCell id="FbiYdP1pLjlpcdiMdaUz-37" value="User feedback" style="text;html=1;align=center;verticalAlign=middle;resizable=0;points=[];autosize=1;strokeColor=#432D57;fillColor=#76608a;fontColor=#ffffff;fontSize=14;" parent="1" vertex="1">
          <mxGeometry x="-180" y="300" width="110" height="30" as="geometry" />
        </mxCell>
        <mxCell id="nibuWo2lfM-opHOFJb7m-1" value="" style="rounded=1;whiteSpace=wrap;html=1;fillColor=none;dashed=1;dashPattern=8 8;fontSize=14;" vertex="1" parent="1">
          <mxGeometry x="590" y="-50" width="190" height="450" as="geometry" />
        </mxCell>
        <mxCell id="nibuWo2lfM-opHOFJb7m-2" style="edgeStyle=none;rounded=0;orthogonalLoop=1;jettySize=auto;html=1;entryX=-0.001;entryY=0.951;entryDx=0;entryDy=0;entryPerimeter=0;fillColor=#e51400;strokeColor=#B20000;fontSize=14;" edge="1" parent="1" source="FbiYdP1pLjlpcdiMdaUz-28" target="nibuWo2lfM-opHOFJb7m-1">
          <mxGeometry relative="1" as="geometry" />
        </mxCell>
        <mxCell id="nibuWo2lfM-opHOFJb7m-3" value="Control access to files&lt;br&gt;Ensure no sensitive data is used" style="text;html=1;align=center;verticalAlign=middle;resizable=0;points=[];autosize=1;strokeColor=#B20000;fillColor=#e51400;fontColor=#ffffff;fontSize=14;" vertex="1" parent="1">
          <mxGeometry x="500" y="465" width="220" height="50" as="geometry" />
        </mxCell>
      </root>
    </mxGraphModel>
  </diagram>
  <diagram id="qP_C0u0tHEsvGUwQMbge" name="High level">
    <mxGraphModel dx="1999" dy="861" grid="0" gridSize="10" guides="1" tooltips="1" connect="1" arrows="1" fold="1" page="0" pageScale="1" pageWidth="827" pageHeight="1169" math="0" shadow="0">
      <root>
        <mxCell id="0" />
        <mxCell id="1" parent="0" />
        <mxCell id="ecLkq2MZTmtjZOQ45dI--59" value="AI layer" style="rounded=1;whiteSpace=wrap;html=1;fillColor=none;dashed=1;dashPattern=8 8;verticalAlign=top;fontSize=14;" parent="1" vertex="1">
          <mxGeometry x="50" y="364" width="512" height="152" as="geometry" />
        </mxCell>
        <mxCell id="ecLkq2MZTmtjZOQ45dI--58" value="Document source" style="rounded=1;whiteSpace=wrap;html=1;fillColor=none;verticalAlign=top;fontSize=14;" parent="1" vertex="1">
          <mxGeometry x="602" y="210" width="160" height="450" as="geometry" />
        </mxCell>
        <mxCell id="ecLkq2MZTmtjZOQ45dI--40" value="Website layer" style="rounded=1;whiteSpace=wrap;html=1;fillColor=none;verticalAlign=top;fontSize=14;" parent="1" vertex="1">
          <mxGeometry x="-168" y="232" width="140" height="406" as="geometry" />
        </mxCell>
        <mxCell id="ecLkq2MZTmtjZOQ45dI--43" style="edgeStyle=none;rounded=0;orthogonalLoop=1;jettySize=auto;html=1;entryX=0;entryY=0.5;entryDx=0;entryDy=0;fontSize=14;" parent="1" source="ecLkq2MZTmtjZOQ45dI--28" target="ecLkq2MZTmtjZOQ45dI--40" edge="1">
          <mxGeometry relative="1" as="geometry" />
        </mxCell>
        <mxCell id="ecLkq2MZTmtjZOQ45dI--28" value="Users" style="sketch=0;outlineConnect=0;gradientColor=none;fillColor=#232F3D;strokeColor=none;dashed=0;verticalLabelPosition=bottom;verticalAlign=top;align=center;html=1;aspect=fixed;pointerEvents=1;shape=mxgraph.aws4.users;fontSize=14;" parent="1" vertex="1">
          <mxGeometry x="-380" y="396" width="78" height="78" as="geometry" />
        </mxCell>
        <mxCell id="ecLkq2MZTmtjZOQ45dI--31" value="Cognito" style="sketch=0;points=[[0,0,0],[0.25,0,0],[0.5,0,0],[0.75,0,0],[1,0,0],[0,1,0],[0.25,1,0],[0.5,1,0],[0.75,1,0],[1,1,0],[0,0.25,0],[0,0.5,0],[0,0.75,0],[1,0.25,0],[1,0.5,0],[1,0.75,0]];outlineConnect=0;fontColor=#232F3E;fillColor=#DD344C;strokeColor=#ffffff;dashed=0;verticalLabelPosition=bottom;verticalAlign=top;align=center;html=1;fontSize=14;fontStyle=0;aspect=fixed;shape=mxgraph.aws4.resourceIcon;resIcon=mxgraph.aws4.cognito;" parent="1" vertex="1">
          <mxGeometry x="-138" y="508" width="78" height="78" as="geometry" />
        </mxCell>
        <mxCell id="ecLkq2MZTmtjZOQ45dI--32" value="Website S3" style="sketch=0;points=[[0,0,0],[0.25,0,0],[0.5,0,0],[0.75,0,0],[1,0,0],[0,1,0],[0.25,1,0],[0.5,1,0],[0.75,1,0],[1,1,0],[0,0.25,0],[0,0.5,0],[0,0.75,0],[1,0.25,0],[1,0.5,0],[1,0.75,0]];outlineConnect=0;fontColor=#232F3E;fillColor=#7AA116;strokeColor=#ffffff;dashed=0;verticalLabelPosition=bottom;verticalAlign=top;align=center;html=1;fontSize=14;fontStyle=0;aspect=fixed;shape=mxgraph.aws4.resourceIcon;resIcon=mxgraph.aws4.s3;" parent="1" vertex="1">
          <mxGeometry x="-138" y="268" width="78" height="78" as="geometry" />
        </mxCell>
        <mxCell id="ecLkq2MZTmtjZOQ45dI--34" value="Bedrock&lt;br&gt;Embedding model" style="sketch=0;outlineConnect=0;fontColor=#232F3E;fillColor=#01A88D;strokeColor=#ffffff;dashed=0;verticalLabelPosition=bottom;verticalAlign=top;align=center;html=1;fontSize=12;fontStyle=0;aspect=fixed;shape=mxgraph.aws4.resourceIcon;resIcon=mxgraph.aws4.bedrock;points=[[0,0,0],[0.25,0,0],[0.5,0,0],[0.75,0,0],[1,0,0],[0,1,0],[0.25,1,0],[0.5,1,0],[0.75,1,0],[1,1,0],[0,0.25,0],[0,0.5,0],[0,0.75,0],[1,0.25,0],[1,0.5,0],[1,0.75,0]];" parent="1" vertex="1">
          <mxGeometry x="447" y="396" width="78" height="78" as="geometry" />
        </mxCell>
        <mxCell id="ecLkq2MZTmtjZOQ45dI--56" style="edgeStyle=none;rounded=0;orthogonalLoop=1;jettySize=auto;html=1;exitX=0;exitY=0.5;exitDx=0;exitDy=0;fontSize=14;" parent="1" source="ecLkq2MZTmtjZOQ45dI--58" target="ecLkq2MZTmtjZOQ45dI--34" edge="1">
          <mxGeometry relative="1" as="geometry" />
        </mxCell>
        <mxCell id="ecLkq2MZTmtjZOQ45dI--36" value="S3" style="sketch=0;points=[[0,0,0],[0.25,0,0],[0.5,0,0],[0.75,0,0],[1,0,0],[0,1,0],[0.25,1,0],[0.5,1,0],[0.75,1,0],[1,1,0],[0,0.25,0],[0,0.5,0],[0,0.75,0],[1,0.25,0],[1,0.5,0],[1,0.75,0]];outlineConnect=0;fontColor=#232F3E;fillColor=#7AA116;strokeColor=#ffffff;dashed=0;verticalLabelPosition=bottom;verticalAlign=top;align=center;html=1;fontSize=14;fontStyle=0;aspect=fixed;shape=mxgraph.aws4.resourceIcon;resIcon=mxgraph.aws4.s3;" parent="1" vertex="1">
          <mxGeometry x="643.5" y="320" width="78" height="78" as="geometry" />
        </mxCell>
        <mxCell id="ecLkq2MZTmtjZOQ45dI--42" style="edgeStyle=none;rounded=0;orthogonalLoop=1;jettySize=auto;html=1;fontSize=14;" parent="1" source="ecLkq2MZTmtjZOQ45dI--40" target="ecLkq2MZTmtjZOQ45dI--44" edge="1">
          <mxGeometry relative="1" as="geometry">
            <mxPoint x="-18" y="426.43312101910806" as="targetPoint" />
          </mxGeometry>
        </mxCell>
        <mxCell id="ecLkq2MZTmtjZOQ45dI--44" value="Amazon Bedrock" style="sketch=0;points=[[0,0,0],[0.25,0,0],[0.5,0,0],[0.75,0,0],[1,0,0],[0,1,0],[0.25,1,0],[0.5,1,0],[0.75,1,0],[1,1,0],[0,0.25,0],[0,0.5,0],[0,0.75,0],[1,0.25,0],[1,0.5,0],[1,0.75,0]];outlineConnect=0;fontColor=#232F3E;fillColor=#01A88D;strokeColor=#ffffff;dashed=0;verticalLabelPosition=bottom;verticalAlign=top;align=center;html=1;fontSize=14;fontStyle=0;aspect=fixed;shape=mxgraph.aws4.resourceIcon;resIcon=mxgraph.aws4.bedrock;" parent="1" vertex="1">
          <mxGeometry x="94" y="396" width="78" height="78" as="geometry" />
        </mxCell>
        <mxCell id="ecLkq2MZTmtjZOQ45dI--48" style="edgeStyle=none;rounded=0;orthogonalLoop=1;jettySize=auto;html=1;fontSize=14;" parent="1" source="ecLkq2MZTmtjZOQ45dI--45" target="ecLkq2MZTmtjZOQ45dI--34" edge="1">
          <mxGeometry relative="1" as="geometry" />
        </mxCell>
        <mxCell id="ecLkq2MZTmtjZOQ45dI--51" style="edgeStyle=none;rounded=0;orthogonalLoop=1;jettySize=auto;html=1;fontSize=14;" parent="1" source="ecLkq2MZTmtjZOQ45dI--45" target="ecLkq2MZTmtjZOQ45dI--50" edge="1">
          <mxGeometry relative="1" as="geometry" />
        </mxCell>
        <mxCell id="ecLkq2MZTmtjZOQ45dI--45" value="Lambda" style="sketch=0;points=[[0,0,0],[0.25,0,0],[0.5,0,0],[0.75,0,0],[1,0,0],[0,1,0],[0.25,1,0],[0.5,1,0],[0.75,1,0],[1,1,0],[0,0.25,0],[0,0.5,0],[0,0.75,0],[1,0.25,0],[1,0.5,0],[1,0.75,0]];outlineConnect=0;fontColor=#232F3E;fillColor=#ED7100;strokeColor=#ffffff;dashed=0;verticalLabelPosition=bottom;verticalAlign=top;align=center;html=1;fontSize=14;fontStyle=0;aspect=fixed;shape=mxgraph.aws4.resourceIcon;resIcon=mxgraph.aws4.lambda;" parent="1" vertex="1">
          <mxGeometry x="262" y="396" width="78" height="78" as="geometry" />
        </mxCell>
        <mxCell id="ecLkq2MZTmtjZOQ45dI--47" style="edgeStyle=none;rounded=0;orthogonalLoop=1;jettySize=auto;html=1;entryX=0;entryY=0.5;entryDx=0;entryDy=0;entryPerimeter=0;fontSize=14;" parent="1" source="ecLkq2MZTmtjZOQ45dI--44" target="ecLkq2MZTmtjZOQ45dI--45" edge="1">
          <mxGeometry relative="1" as="geometry" />
        </mxCell>
        <mxCell id="ecLkq2MZTmtjZOQ45dI--50" value="DynamoDB" style="sketch=0;points=[[0,0,0],[0.25,0,0],[0.5,0,0],[0.75,0,0],[1,0,0],[0,1,0],[0.25,1,0],[0.5,1,0],[0.75,1,0],[1,1,0],[0,0.25,0],[0,0.5,0],[0,0.75,0],[1,0.25,0],[1,0.5,0],[1,0.75,0]];outlineConnect=0;fontColor=#232F3E;fillColor=#C925D1;strokeColor=#ffffff;dashed=0;verticalLabelPosition=bottom;verticalAlign=top;align=center;html=1;fontSize=14;fontStyle=0;aspect=fixed;shape=mxgraph.aws4.resourceIcon;resIcon=mxgraph.aws4.dynamodb;" parent="1" vertex="1">
          <mxGeometry x="262" y="606" width="78" height="78" as="geometry" />
        </mxCell>
        <mxCell id="ecLkq2MZTmtjZOQ45dI--52" style="edgeStyle=none;rounded=0;orthogonalLoop=1;jettySize=auto;html=1;exitX=0;exitY=0.25;exitDx=0;exitDy=0;exitPerimeter=0;entryX=1.004;entryY=0.449;entryDx=0;entryDy=0;entryPerimeter=0;fontSize=14;" parent="1" source="ecLkq2MZTmtjZOQ45dI--44" target="ecLkq2MZTmtjZOQ45dI--40" edge="1">
          <mxGeometry relative="1" as="geometry">
            <mxPoint x="92" y="446" as="sourcePoint" />
            <mxPoint x="12" y="416" as="targetPoint" />
          </mxGeometry>
        </mxCell>
        <mxCell id="ecLkq2MZTmtjZOQ45dI--53" style="edgeStyle=none;rounded=0;orthogonalLoop=1;jettySize=auto;html=1;exitX=0;exitY=0.25;exitDx=0;exitDy=0;exitPerimeter=0;entryX=1;entryY=0.25;entryDx=0;entryDy=0;entryPerimeter=0;fontSize=14;" parent="1" source="ecLkq2MZTmtjZOQ45dI--34" target="ecLkq2MZTmtjZOQ45dI--45" edge="1">
          <mxGeometry relative="1" as="geometry" />
        </mxCell>
        <mxCell id="ecLkq2MZTmtjZOQ45dI--54" style="edgeStyle=none;rounded=0;orthogonalLoop=1;jettySize=auto;html=1;exitX=0;exitY=0.25;exitDx=0;exitDy=0;exitPerimeter=0;entryX=1;entryY=0.25;entryDx=0;entryDy=0;entryPerimeter=0;fontSize=14;" parent="1" source="ecLkq2MZTmtjZOQ45dI--45" target="ecLkq2MZTmtjZOQ45dI--44" edge="1">
          <mxGeometry relative="1" as="geometry" />
        </mxCell>
        <mxCell id="ecLkq2MZTmtjZOQ45dI--55" value="Cloudfront" style="sketch=0;points=[[0,0,0],[0.25,0,0],[0.5,0,0],[0.75,0,0],[1,0,0],[0,1,0],[0.25,1,0],[0.5,1,0],[0.75,1,0],[1,1,0],[0,0.25,0],[0,0.5,0],[0,0.75,0],[1,0.25,0],[1,0.5,0],[1,0.75,0]];outlineConnect=0;fontColor=#232F3E;fillColor=#8C4FFF;strokeColor=#ffffff;dashed=0;verticalLabelPosition=bottom;verticalAlign=top;align=center;html=1;fontSize=14;fontStyle=0;aspect=fixed;shape=mxgraph.aws4.resourceIcon;resIcon=mxgraph.aws4.cloudfront;" parent="1" vertex="1">
          <mxGeometry x="-138" y="378" width="78" height="78" as="geometry" />
        </mxCell>
        <mxCell id="ecLkq2MZTmtjZOQ45dI--57" value="File Server" style="sketch=0;outlineConnect=0;fontColor=#232F3E;gradientColor=none;fillColor=#232F3D;strokeColor=none;dashed=0;verticalLabelPosition=bottom;verticalAlign=top;align=center;html=1;fontSize=14;fontStyle=0;aspect=fixed;pointerEvents=1;shape=mxgraph.aws4.traditional_server;" parent="1" vertex="1">
          <mxGeometry x="662" y="470" width="45" height="78" as="geometry" />
        </mxCell>
        <mxCell id="ecLkq2MZTmtjZOQ45dI--61" value="Grafana&lt;br&gt;Monitoring" style="sketch=0;points=[[0,0,0],[0.25,0,0],[0.5,0,0],[0.75,0,0],[1,0,0],[0,1,0],[0.25,1,0],[0.5,1,0],[0.75,1,0],[1,1,0],[0,0.25,0],[0,0.5,0],[0,0.75,0],[1,0.25,0],[1,0.5,0],[1,0.75,0]];points=[[0,0,0],[0.25,0,0],[0.5,0,0],[0.75,0,0],[1,0,0],[0,1,0],[0.25,1,0],[0.5,1,0],[0.75,1,0],[1,1,0],[0,0.25,0],[0,0.5,0],[0,0.75,0],[1,0.25,0],[1,0.5,0],[1,0.75,0]];outlineConnect=0;fontColor=#232F3E;fillColor=#E7157B;strokeColor=#ffffff;dashed=0;verticalLabelPosition=bottom;verticalAlign=top;align=center;html=1;fontSize=14;fontStyle=0;aspect=fixed;shape=mxgraph.aws4.resourceIcon;resIcon=mxgraph.aws4.managed_service_for_grafana;" parent="1" vertex="1">
          <mxGeometry x="262" y="756" width="78" height="78" as="geometry" />
        </mxCell>
        <mxCell id="ecLkq2MZTmtjZOQ45dI--62" style="edgeStyle=none;rounded=0;orthogonalLoop=1;jettySize=auto;html=1;entryX=0.5;entryY=1;entryDx=0;entryDy=0;entryPerimeter=0;fontSize=14;" parent="1" source="ecLkq2MZTmtjZOQ45dI--61" target="ecLkq2MZTmtjZOQ45dI--50" edge="1">
          <mxGeometry relative="1" as="geometry" />
        </mxCell>
      </root>
    </mxGraphModel>
  </diagram>
</mxfile>
